# xmcd
#
# Track frame offsets:
#	150
#	21263
#	41269
#	67405
#	85474
#	105062
#	125639
#	143541
#	160858
#	181052
#	201970
#	219823
#	237913
#	256400
#	273334
#	293131
#	314802
#	331471
#
# Disc length: 4683 seconds
#
# Revision: 0
# Processed by: cddbd v1.5.2PL0 Copyright (c) Steve Scherf et al.
# Submitted via: EasyCDDAExtractor 10.0.3.1
#
DISCID=07124912
DTITLE=Eros Ramazzotti - Best Of Disc 1 of 2
DYEAR=1900
DGENRE=
TTITLE0=L'ombra Del Gigante
TTITLE1=Piu Bella Cosa
TTITLE2=Cantico
TTITLE3=Mamara
TTITLE4=C'e Una Strada In Cielo
TTITLE5=Oggi Che Giorno E
TTITLE6=Parla Con Me
TTITLE7=Dammi La Luna
TTITLE8=Ti Vorrei Rivivere
TTITLE9=La Nostra Vita
TTITLE10=Cara Prof
TTITLE11=Il Buio Ha I Tuoi Occhi
TTITLE12=Un Ancora Nel Vento
TTITLE13=Controvento
TTITLE14=Amarti E L'immenso Per Me
TTITLE15=Canzoni Lontane
TTITLE16=Non Siamo Soli
TTITLE17=Amore Contro
EXTD=
EXTT0=
EXTT1=
EXTT2=
EXTT3=
EXTT4=
EXTT5=
EXTT6=
EXTT7=
EXTT8=
EXTT9=
EXTT10=
EXTT11=
EXTT12=
EXTT13=
EXTT14=
EXTT15=
EXTT16=
EXTT17=
PLAYORDER=
